Coordinates
version=1
nRows=4
nColumns=63
inDegrees=yes

Units are S.I. units (second, meters, Newtons, ...)
If the header above contains a line with 'inDegrees', this indicates whether rotational values are in degrees (yes) or radians (no).

endheader
time	pelvis_tilt	pelvis_list	pelvis_rotation	pelvis_tx	pelvis_ty	pelvis_tz	hip_flexion_r	hip_adduction_r	hip_rotation_r	knee_angle_r	knee_angle_r_beta	ankle_angle_r	subtalar_angle_r	mtp_angle_r	hip_flexion_l	hip_adduction_l	hip_rotation_l	knee_angle_l	knee_angle_l_beta	ankle_angle_l	subtalar_angle_l	mtp_angle_l	L5_S1_Flex_Ext	L5_S1_Lat_Bending	L5_S1_axial_rotation	L4_L5_Flex_Ext	L4_L5_Lat_Bending	L4_L5_axial_rotation	L3_L4_Flex_Ext	L3_L4_Lat_Bending	L3_L4_axial_rotation	L2_L3_Flex_Ext	L2_L3_Lat_Bending	L2_L3_axial_rotation	L1_L2_Flex_Ext	L1_L2_Lat_Bending	L1_L2_axial_rotation	L1_T12_Flex_Ext	L1_T12_Lat_Bending	L1_T12_axial_rotation	Abs_r3	Abs_r2	Abs_r1	Abs_t1	Abs_t2	neck_flexion	neck_bending	neck_rotation	arm_flex_r	arm_add_r	arm_rot_r	elbow_flex_r	pro_sup_r	wrist_flex_r	wrist_dev_r	arm_flex_l	arm_add_l	arm_rot_l	elbow_flex_l	pro_sup_l	wrist_flex_l	wrist_dev_l
      4.35294118	     -4.55639419	    -18.27821440	     84.18677489	      0.23838019	      0.78860134	      0.67217438	     26.25546540	     -1.18729607	      9.50577382	     16.57062831	      0.28921202	     25.34137465	     -6.23070657	      0.00000000	     23.77468057	      0.98087085	     -4.14490308	     12.53092141	      0.21870584	     22.90246326	     -7.41008522	      0.00000000	      0.06718949	     -0.93502200	      1.08055130	      0.12477761	     -1.24357926	      1.14808575	      0.11038562	     -2.27341249	      1.14808575	      0.07679087	     -2.27341249	      0.94548238	      0.06239216	     -1.90669686	      0.87794793	      0.03839208	     -1.44834908	      0.81041347	      0.47992782	    -10.57715585	      6.00970214	      0.00000000	      0.00000000	     27.72076887	      7.25958246	     -2.23581918	      4.04925463	    -10.18182476	     17.99788098	     85.14896773	     81.46550653	     -8.63368585	      0.71731532	     15.92000071	     -5.04741186	      3.85628819	    132.83516088	     81.75940243	    -13.13189439	      6.13235392
      4.38235294	     -4.39360092	    -18.32684611	     84.75628535	      0.23754084	      0.79001444	      0.67073996	     25.73540855	     -1.38357202	      8.66075661	     15.66979465	      0.27348951	     25.55139478	     -5.57822291	      0.00000000	     23.13020618	      1.08275228	     -3.83237091	     11.17922000	      0.19511420	     22.24660233	     -6.86175448	      0.00000000	      0.12404459	     -0.90246703	      1.05054832	      0.23036321	     -1.20028115	      1.11620759	      0.20379286	     -2.19425833	      1.11620759	      0.14177056	     -2.19425833	      0.91922978	      0.11518781	     -1.84031076	      0.85357051	      0.07087908	     -1.39792142	      0.78791124	      0.88603809	    -10.20888750	      5.84283458	      0.00000000	      0.00000000	     28.00744799	      7.21993340	     -2.09672970	      2.14304913	    -10.33611300	     16.73325062	     86.46999654	     83.64437147	    -10.22693782	      3.79733748	     18.51737130	     -4.39961287	      3.95769399	    132.55488070	     81.26562470	    -11.94559928	      4.98148259
      4.41176471	     -4.29873517	    -18.35771075	     85.44935847	      0.23675840	      0.79158876	      0.66959726	     25.21525880	     -1.63516138	      8.02521257	     14.82137541	      0.25868180	     25.43483106	     -5.50533330	      0.00000000	     22.53534034	      1.27053712	     -3.45033001	      9.83978919	      0.17173672	     21.75239865	     -6.20443578	      0.00000000	      0.17329130	     -0.88480765	      0.99443880	      0.32181927	     -1.17679417	      1.05659123	      0.28470027	     -2.15132132	      1.05659123	      0.19805462	     -2.15132132	      0.87013395	      0.16091830	     -1.80429976	      0.80798153	      0.09901865	     -1.37056705	      0.74582910	      1.23780242	    -10.00912110	      5.53077029	      0.00000000	      0.00000000	     28.15622667	      7.07671699	     -2.21031461	      0.40039260	    -10.62951023	     15.84616976	     87.50958263	     84.93036679	    -11.50491850	      6.23469693	     21.21940404	     -3.65940417	      4.00266204	    132.29140161	     81.61670194	    -10.86079254	      3.10125451
      4.44117647	     -4.14353868	    -18.34187429	     86.03113963	      0.23597531	      0.79315479	      0.66866613	     24.73148176	     -1.79329713	      7.40103326	     14.11820719	      0.24640920	     25.30347273	     -5.22146591	      0.00000000	     22.01941690	      1.35451996	     -3.25428994	      8.77449611	      0.15314385	     21.45138366	     -5.60666697	      0.00000000	      0.22962683	     -0.85729054	      0.92019736	      0.42643999	     -1.14019642	      0.97770969	      0.37725392	     -2.08441622	      0.97770969	      0.26244051	     -2.08441622	      0.80517269	      0.21323148	     -1.74818687	      0.74766035	      0.13120877	     -1.32794304	      0.69014802	      1.64020150	     -9.69784203	      5.11786165	      0.00000000	      0.00000000	     28.24430575	      6.46721534	     -2.51586512	     -0.66059058	    -11.58270185	     16.29859893	     88.27499734	     86.99878093	    -13.50426053	      9.02704743	     23.87863258	     -2.83570972	      3.84336335	    131.91262223	     81.91746307	    -10.13118801	      1.21273810
